HIERARCHY
ROOT Hips
{
	OFFSET 0.000000 0.000000 0.000000
	CHANNELS 6 Xposition Yposition Zposition Yrotation Xrotation Zrotation
	JOINT Chest
	{
		OFFSET 0.000000 -0.009281 11.569106
		CHANNELS 3 Yrotation Xrotation Zrotation
		JOINT Chest2
		{
			OFFSET -0.000000 0.016865 9.269641
			CHANNELS 3 Yrotation Xrotation Zrotation
			JOINT Chest3
			{
				OFFSET -0.000000 0.000001 8.374491
				CHANNELS 3 Yrotation Xrotation Zrotation
				JOINT Chest4
				{
					OFFSET -0.000000 0.000001 8.374493
					CHANNELS 3 Yrotation Xrotation Zrotation
					JOINT Neck
					{
						OFFSET -0.000000 0.000002 12.152554
						CHANNELS 3 Yrotation Xrotation Zrotation
						JOINT Head
						{
							OFFSET -0.000000 0.040101 7.802319
							CHANNELS 3 Yrotation Xrotation Zrotation
							End Site
							{
								OFFSET -0.000000 0.020947 14.853096
							}
						}
					}
					JOINT RightCollar
					{
						OFFSET 2.894404 0.000001 6.791374
						CHANNELS 3 Yrotation Xrotation Zrotation
						JOINT RightShoulder
						{
							OFFSET 13.574684 0.000001 0.000000
							CHANNELS 3 Yrotation Xrotation Zrotation
							JOINT RightElbow
							{
								OFFSET 23.923903 0.000002 0.000000
								CHANNELS 3 Yrotation Xrotation Zrotation
								JOINT RightWrist
								{
									OFFSET 19.846718 0.012767 0.000000
									CHANNELS 3 Yrotation Xrotation Zrotation
									End Site
									{
										OFFSET 14.973145 0.000001 0.000000
									}
								}
							}
						}
					}
					JOINT LeftCollar
					{
						OFFSET -2.894404 0.000001 6.791374
						CHANNELS 3 Yrotation Xrotation Zrotation
						JOINT LeftShoulder
						{
							OFFSET -13.574684 -0.000001 0.000000
							CHANNELS 3 Yrotation Xrotation Zrotation
							JOINT LeftElbow
							{
								OFFSET -23.923903 -0.000002 0.000000
								CHANNELS 3 Yrotation Xrotation Zrotation
								JOINT LeftWrist
								{
									OFFSET -19.846718 0.012763 0.000000
									CHANNELS 3 Yrotation Xrotation Zrotation
									End Site
									{
										OFFSET -14.973145 -0.000001 0.000000
									}
								}
							}
						}
					}
				}
			}
		}
	}
	JOINT RightHip
	{
		OFFSET 9.469263 0.004643 0.045487
		CHANNELS 3 Yrotation Xrotation Zrotation
		JOINT RightKnee
		{
			OFFSET 0.000000 0.002661 -40.478676
			CHANNELS 3 Yrotation Xrotation Zrotation
			JOINT RightAnkle
			{
				OFFSET 0.000000 0.049106 -35.224068
				CHANNELS 3 Yrotation Xrotation Zrotation
				JOINT RightToe
				{
					OFFSET -0.000001 12.539529 -6.151390
					CHANNELS 3 Yrotation Xrotation Zrotation
					End Site
					{
						OFFSET -0.000001 5.044994 -1.291870
					}
				}
			}
		}
	}
	JOINT LeftHip
	{
		OFFSET -9.469263 0.004641 0.045487
		CHANNELS 3 Yrotation Xrotation Zrotation
		JOINT LeftKnee
		{
			OFFSET 0.000000 0.002661 -40.478676
			CHANNELS 3 Yrotation Xrotation Zrotation
			JOINT LeftAnkle
			{
				OFFSET 0.000000 0.049106 -35.224068
				CHANNELS 3 Yrotation Xrotation Zrotation
				JOINT LeftToe
				{
					OFFSET -0.000001 12.539529 -6.151390
					CHANNELS 3 Yrotation Xrotation Zrotation
					End Site
					{
						OFFSET -0.000001 5.044994 -1.291870
					}
				}
			}
		}
	}
}
MOTION
Frames: 9
Frame Time: 0.016667
11.220646 6.457353 83.076042 -4.898736 -1.721042 -108.284603 -0.381371 -2.462135 0.744074 -0.163462 -1.093273 0.322539 -0.163462 -1.093273 0.322537 -0.122016 -0.820042 0.241600 0.485240 -16.990403 -2.320295 0.088401 4.615552 -4.126049 3.009077 22.417796 -5.449621 29.975549 53.310446 27.971691 30.447484 2.005611 74.494469 -25.413099 23.671463 18.887773 -3.380242 18.451114 -0.362638 -29.747458 49.470264 -29.641412 -21.183719 9.864168 -72.311780 14.895717 24.285468 -17.342569 -0.400922 -7.287068 -3.557827 1.337362 -2.110591 -6.696744 -0.503835 3.703323 2.258661 -0.004253 -0.020532 0.005868 -0.644674 -7.838322 0.474465 0.736175 -1.248316 1.917128 -0.592010 3.986139 0.895708 0.012268 -0.019210 -0.002911 
11.219272 6.458839 83.072800 -4.900660 -1.722673 -108.287472 -0.345938 -2.486558 0.731317 -0.147836 -1.104619 0.316913 -0.147836 -1.104620 0.316914 -0.110301 -0.828542 0.237412 0.441081 -16.970110 -2.307259 0.010628 4.652144 -4.117673 3.098444 22.630725 -5.298976 29.695327 53.309613 27.878783 28.949361 1.698697 74.083742 -26.117378 23.935739 19.891650 -3.084095 18.534564 0.254746 -30.108789 49.395419 -30.405878 -14.117507 9.347481 -69.386253 16.225495 25.592669 -18.022699 -0.403320 -7.281861 -3.499738 1.338286 -2.122452 -6.764588 -0.502665 3.713104 2.279569 0.000392 -0.022014 0.006104 -0.641253 -7.836977 0.391296 0.729164 -1.256714 1.967148 -0.590222 3.992214 0.923650 0.011832 -0.022312 -0.003142 
11.210795 6.465994 83.070663 -4.916152 -1.728063 -108.301003 -0.316121 -2.528122 0.734225 -0.134449 -1.123182 0.319237 -0.134449 -1.123182 0.319240 -0.100247 -0.842457 0.239175 0.405655 -16.922714 -2.308658 -0.056843 4.739010 -4.133508 3.239744 22.578415 -5.108658 29.414999 53.314903 27.543429 34.774791 1.693773 75.193771 -21.837957 27.600434 19.785839 -3.211594 18.543940 0.207500 -30.066295 49.562178 -30.404806 -16.639599 9.465940 -69.394462 8.821105 37.978041 -18.631023 -0.407748 -7.273259 -3.464729 1.339101 -2.154361 -6.778235 -0.504945 3.723928 2.280784 0.004218 -0.023428 0.006643 -0.648159 -7.830568 0.319900 0.730787 -1.293042 2.032638 -0.587923 4.004153 0.936114 0.009352 -0.023015 -0.004749 
11.199213 6.472219 83.070900 -4.943125 -1.733519 -108.312614 -0.296231 -2.563827 0.747506 -0.126434 -1.139068 0.325769 -0.126434 -1.139068 0.325773 -0.094215 -0.854369 0.244081 0.393659 -16.867197 -2.321447 -0.085190 4.841414 -4.162413 3.279224 22.205157 -5.041008 29.513534 53.065181 27.290871 43.138621 2.212351 77.086587 -15.169702 30.924788 18.704463 -3.413969 18.184089 -0.213229 -30.119597 49.778753 -30.201413 -27.936433 10.506789 -72.492554 -0.947879 46.038460 -19.293042 -0.417651 -7.272705 -3.485522 1.342142 -2.190612 -6.726133 -0.511770 3.731655 2.269121 0.008459 -0.022278 0.007767 -0.655977 -7.833337 0.322075 0.729579 -1.326115 2.042200 -0.583434 4.008159 0.948716 0.006159 -0.020239 -0.005964 
11.191766 6.477183 83.070396 -4.950812 -1.730821 -108.320107 -0.281090 -2.581065 0.758881 -0.120593 -1.145777 0.331135 -0.120593 -1.145777 0.331138 -0.089821 -0.859398 0.248119 0.400974 -16.819314 -2.335262 -0.077929 4.930241 -4.186321 3.324452 21.964768 -4.950666 29.818530 52.890977 27.360735 49.103463 2.768377 78.371517 -8.762753 34.128826 17.151028 -3.314462 17.871757 -0.198284 -31.114636 49.838418 -30.864491 -42.534740 11.168648 -76.718932 -5.006526 50.939571 -16.004482 -0.426281 -7.263128 -3.553669 1.345893 -2.211186 -6.649244 -0.521500 3.738723 2.252761 0.011638 -0.024752 0.007307 -0.660789 -7.832928 0.404563 0.724016 -1.328501 2.003537 -0.581464 4.004129 0.920018 0.005730 -0.021260 -0.005969 
11.193242 6.477130 83.069321 -4.935066 -1.725522 -108.318713 -0.273521 -2.575209 0.758968 -0.117115 -1.141266 0.331087 -0.117116 -1.141266 0.331084 -0.087216 -0.856013 0.248087 0.428301 -16.798538 -2.343865 -0.030953 4.969486 -4.193031 3.397897 22.091263 -4.856163 30.319247 53.193551 27.939328 49.869178 2.798373 78.087736 -5.728977 36.646929 17.442392 -3.196191 17.830470 -0.052084 -32.501281 50.573924 -32.216906 -51.576012 10.887193 -78.789552 -3.044272 51.936301 -11.562452 -0.428853 -7.255285 -3.623739 1.348624 -2.198106 -6.593313 -0.527027 3.734825 2.261273 0.012821 -0.025525 0.006136 -0.658745 -7.828318 0.523415 0.720569 -1.303682 1.949356 -0.588994 3.995184 0.866545 0.010177 -0.025143 -0.004955 
11.203785 6.471595 83.071945 -4.919220 -1.715973 -108.306248 -0.270909 -2.545345 0.748177 -0.116046 -1.127441 0.325518 -0.116046 -1.127441 0.325517 -0.086431 -0.845643 0.243916 0.465486 -16.827788 -2.349517 0.036825 4.916221 -4.189905 3.381617 22.117099 -4.928266 30.737006 53.675742 28.280417 44.921212 2.069769 77.041126 -10.412129 35.685857 18.057557 -3.370938 17.949107 -0.246177 -33.073282 51.564237 -32.824957 -47.543553 10.748514 -76.431825 0.616281 46.932771 -12.736091 -0.426980 -7.260783 -3.645859 1.341966 -2.169546 -6.593684 -0.521941 3.723189 2.281569 0.009307 -0.019043 0.005162 -0.655036 -7.836966 0.604135 0.715986 -1.261065 1.911482 -0.605885 3.973212 0.815024 0.018812 -0.020145 -0.004165 
11.214238 6.462950 83.076462 -4.919451 -1.710490 -108.286646 -0.256476 -2.511574 0.714493 -0.109953 -1.114537 0.309578 -0.109953 -1.114537 0.309576 -0.081898 -0.835959 0.231975 0.488178 -16.874264 -2.342646 0.082641 4.830782 -4.168387 3.316624 21.863984 -4.986395 31.020937 54.152878 28.404030 37.391300 1.280250 75.790634 -20.007410 29.611746 17.519271 -3.609192 18.136992 -0.501097 -32.118200 51.457740 -31.915121 -36.537697 11.268269 -72.864028 6.018862 36.698436 -15.187139 -0.422974 -7.278230 -3.598857 1.336370 -2.150339 -6.658725 -0.518314 3.714795 2.290980 0.006833 -0.009448 0.005471 -0.650367 -7.854978 0.608374 0.710616 -1.233308 1.908363 -0.622867 3.956591 0.796263 0.025979 -0.013478 -0.003959 
11.219205 6.457466 83.076347 -4.928758 -1.714197 -108.279979 -0.240604 -2.490399 0.688379 -0.102585 -1.107095 0.297052 -0.102585 -1.107095 0.297056 -0.076398 -0.830371 0.222599 0.514784 -16.903928 -2.345271 0.131856 4.776469 -4.163414 3.342106 22.158257 -4.918324 30.737016 53.811304 28.295271 30.357841 1.180045 74.652656 -26.135545 24.387032 18.381024 -3.502077 18.193997 -0.278354 -31.258839 50.656142 -31.195974 -24.648013 11.409742 -69.150857 10.979189 27.019001 -17.083078 -0.417058 -7.293522 -3.501996 1.338917 -2.145972 -6.751210 -0.522007 3.715243 2.268535 0.006505 -0.006417 0.006439 -0.642373 -7.874359 0.535983 0.701657 -1.223583 1.954230 -0.627675 3.956691 0.818203 0.026060 -0.015732 -0.004945 
